<?xml version="1.0" encoding="utf-8"?>
<!-- Generator: Adobe Illustrator 17.1.0, SVG Export Plug-In . SVG Version: 6.00 Build 0)  -->
<!DOCTYPE svg PUBLIC "-//W3C//DTD SVG 1.1//EN" "http://www.w3.org/Graphics/SVG/1.1/DTD/svg11.dtd">
<svg version="1.1" id="Layer_1" xmlns="http://www.w3.org/2000/svg" xmlns:xlink="http://www.w3.org/1999/xlink" x="0px" y="0px"
	 viewBox="0 0 1024 1024" enable-background="new 0 0 1024 1024" xml:space="preserve">
<rect x="-2.438" y="-2.438" fill="#22A9E1" width="1028.875" height="1028.875"/>
<path fill="#FFFFFF" d="M497.893,248.817v-6.141l-69.666-3.681v7.371l27.37,1.23l-2.492,50.367l-162.972,94.584v11.052
	l-12.443,7.371v12.282l-13.689,6.141v12.282l-47.272,22.113c0,0-6.905,15.489,9.951,38.084
	c-57.521,21.526-72.158,30.714-72.158,30.714l7.467,20.883c0,0,60.864-35.086,151.775-47.907
	c28.672-0.571,52.199-9.485,138.456,3.191c2.331,0.49,8.03,1.061,9.589,1.72c-45.375-0.137-137.58-7.258-210.252,57.738
	c71.394-25.754,136.599-35.215,217.712-29.484c81.9,5.418,196.515,4.276,273.697-13.512c38.953-9.421,101.601-36.171,108.233-40.536
	c-0.346,0.314,1.68-5.964,6.221-44.226c-54.916,26.55-133.521,51.733-171.685,51.596c18.785-94.656,118.184-162.16,118.184-162.16
	s-183.252-33.953-443.429,80.14c-1.511,0.707-6.953,3.183-5.683,2.17c20.529-17.812,184.297-88.7,299.821-94.592
	c-0.265-2.452,0-7.371,0-7.371h-13.681v-18.423h-16.173l-1.246-18.423c0,0-58.091-3.569-108.233-3.681
	c-5.032,0.466,0.378-2.982-31.099,9.831c-2.918-11.72-12.443-29.484-12.443-29.484"/>
<text transform="matrix(0.7331 0 0 1 142.2491 775.2051)" fill="#FFFFFF" font-family="'AvenirNextCondensed-Regular'" font-size="193.9412">KOOL CRUISES</text>
<text transform="matrix(0.7331 0 0 1 142.2491 775.2051)" fill="#FFFFFF" font-family="'AvenirNextCondensed-Regular'" font-size="193.9412">KOOL CRUISES</text>
</svg>
