<?xml version="1.0" encoding="utf-8"?>
<!-- Generator: Adobe Illustrator 17.1.0, SVG Export Plug-In . SVG Version: 6.00 Build 0)  -->
<!DOCTYPE svg PUBLIC "-//W3C//DTD SVG 1.1//EN" "http://www.w3.org/Graphics/SVG/1.1/DTD/svg11.dtd">
<svg version="1.1" id="Layer_1" xmlns="http://www.w3.org/2000/svg" xmlns:xlink="http://www.w3.org/1999/xlink" x="0px" y="0px"
	 viewBox="0 0 128 128" enable-background="new 0 0 128 128" xml:space="preserve">
<rect fill="#1FAAE2" width="128" height="128"/>
<path fill="#FFFFFF" d="M62.245,31.258v-0.764l-8.667-0.458v0.917l3.405,0.153l-0.31,6.266L36.398,49.139v1.375l-1.548,0.917v1.528
	l-1.703,0.764v1.528l-5.881,2.751c0,0-0.859,1.927,1.238,4.738c-7.156,2.678-8.977,3.821-8.977,3.821l0.929,2.598
	c0,0,7.572-4.365,18.882-5.96c3.567-0.071,6.494-1.18,17.225,0.397c0.29,0.061,0.999,0.132,1.193,0.214
	c-5.645-0.017-17.116-0.903-26.157,7.183c8.882-3.204,16.994-4.381,27.085-3.668c10.189,0.674,24.448,0.532,34.05-1.681
	c4.846-1.172,12.64-4.5,13.465-5.043c-0.043,0.039,0.209-0.742,0.774-5.502c-6.832,3.303-16.611,6.436-21.359,6.419
	c2.337-11.776,14.703-20.174,14.703-20.174s-22.798-4.224-55.166,9.97c-0.188,0.088-0.865,0.396-0.707,0.27
	c2.554-2.216,22.928-11.035,37.3-11.768c-0.033-0.305,0-0.917,0-0.917h-1.702v-2.292H78.03l-0.155-2.292
	c0,0-7.227-0.444-13.465-0.458c-0.626,0.058,0.047-0.371-3.869,1.223c-0.363-1.458-1.548-3.668-1.548-3.668"/>
<text transform="matrix(0.7331 0 0 1 18 96.7451)" fill="#FFFFFF" font-family="'AvenirNextCondensed-Regular'" font-size="24.1278">KOOL CRUISES</text>
<text transform="matrix(0.7331 0 0 1 18 96.7451)" fill="#FFFFFF" font-family="'AvenirNextCondensed-Regular'" font-size="24.1278">KOOL CRUISES</text>
</svg>
