<?xml version="1.0" encoding="utf-8"?>
<!-- Generator: Adobe Illustrator 17.1.0, SVG Export Plug-In . SVG Version: 6.00 Build 0)  -->
<!DOCTYPE svg PUBLIC "-//W3C//DTD SVG 1.1//EN" "http://www.w3.org/Graphics/SVG/1.1/DTD/svg11.dtd">
<svg version="1.1" id="Layer_1" xmlns="http://www.w3.org/2000/svg" xmlns:xlink="http://www.w3.org/1999/xlink" x="0px" y="0px"
	 viewBox="0 0 152 152" enable-background="new 0 0 152 152" xml:space="preserve">
<rect x="-0.279" y="-0.279" fill="#22A9E1" width="152.558" height="152.558"/>
<path fill="#FFFFFF" d="M73.921,37.214v-0.905l-10.267-0.543v1.086l4.034,0.181l-0.367,7.423L43.303,58.396v1.629l-1.834,1.086v1.81
	l-2.017,0.905v1.81l-6.967,3.259c0,0-1.018,2.283,1.467,5.613c-8.477,3.172-10.634,4.526-10.634,4.526l1.1,3.078
	c0,0,8.97-5.171,22.367-7.06c4.225-0.084,7.693-1.398,20.405,0.47c0.344,0.072,1.183,0.156,1.413,0.254
	c-6.687-0.02-20.275-1.07-30.985,8.509c10.522-3.795,20.131-5.19,32.085-4.345c12.07,0.798,28.961,0.63,40.335-1.991
	c5.741-1.388,14.973-5.331,15.951-5.974c-0.051,0.046,0.248-0.879,0.917-6.518c-8.093,3.913-19.677,7.624-25.302,7.604
	c2.768-13.95,17.417-23.898,17.417-23.898s-27.006-5.004-65.349,11.81c-0.223,0.104-1.025,0.469-0.838,0.32
	c3.025-2.625,27.16-13.072,44.185-13.94c-0.039-0.361,0-1.086,0-1.086h-2.016V43.55H92.62l-0.184-2.715
	c0,0-8.561-0.526-15.951-0.543c-0.742,0.069,0.056-0.439-4.583,1.449c-0.43-1.727-1.834-4.345-1.834-4.345"/>
<text transform="matrix(0.7331 0 0 1 21.5093 114.79)" fill="#FFFFFF" font-family="'AvenirNextCondensed-Regular'" font-size="28.5816">KOOL CRUISES</text>
<text transform="matrix(0.7331 0 0 1 21.5093 114.79)" fill="#FFFFFF" font-family="'AvenirNextCondensed-Regular'" font-size="28.5816">KOOL CRUISES</text>
</svg>
