<?xml version="1.0" encoding="utf-8"?>
<!-- Generator: Adobe Illustrator 17.1.0, SVG Export Plug-In . SVG Version: 6.00 Build 0)  -->
<!DOCTYPE svg PUBLIC "-//W3C//DTD SVG 1.1//EN" "http://www.w3.org/Graphics/SVG/1.1/DTD/svg11.dtd">
<svg version="1.1" id="Layer_1" xmlns="http://www.w3.org/2000/svg" xmlns:xlink="http://www.w3.org/1999/xlink" x="0px" y="0px"
	 viewBox="0 0 100 50" enable-background="new 0 0 100 50" xml:space="preserve">
<path fill-rule="evenodd" clip-rule="evenodd" fill="#FFFFFF" d="M48.875,3.097V2.259l-9.504-0.503v1.006l3.734,0.168l-0.339,6.871
	L20.533,22.705v1.508l-1.697,1.006v1.676l-1.867,0.838v1.676l-6.449,3.017c0,0-0.942,2.113,1.358,5.195
	c-7.847,2.936-9.843,4.19-9.843,4.19l1.018,2.849c0,0,8.303-4.787,20.705-6.536c3.911-0.078,7.121-1.294,18.887,0.435
	c0.318,0.067,1.096,0.145,1.309,0.235c-6.19-0.019-18.769-0.99-28.682,7.876c9.74-3.513,18.635-4.804,29.7-4.022
	c11.172,0.739,26.808,0.583,37.337-1.843c5.314-1.285,13.86-4.935,14.765-5.53c-0.048,0.043,0.229-0.813,0.849-6.033
	c-7.492,3.622-18.215,7.057-23.42,7.039c2.562-12.913,16.123-22.121,16.123-22.121S65.626,9.526,30.133,25.09
	c-0.206,0.096-0.948,0.434-0.775,0.296c2.8-2.43,25.142-12.101,40.901-12.904c-0.036-0.334,0-1.006,0-1.006h-1.867V8.963h-2.206
	l-0.17-2.514c0,0-7.925-0.487-14.765-0.503c-0.687,0.063,0.052-0.407-4.243,1.341c-0.399-1.599-1.697-4.022-1.697-4.022"/>
</svg>
